<svg width="20" height="20" viewBox="0 0 20 20" fill="none" xmlns="http://www.w3.org/2000/svg">
<path d="M10.5167 17.3417C10.2333 17.4417 9.76667 17.4417 9.48334 17.3417C7.06667 16.5167 1.66667 13.075 1.66667 7.24168C1.66667 4.66668 3.74167 2.58334 6.3 2.58334C7.81667 2.58334 9.15834 3.31668 10 4.45001C10.8417 3.31668 12.1917 2.58334 13.7 2.58334C16.2583 2.58334 18.3333 4.66668 18.3333 7.24168C18.3333 13.075 12.9333 16.5167 10.5167 17.3417Z" fill="#E74C3C"/>
<path d="M15.6351 7.7679C15.6101 8.11873 15.3184 8.3929 14.9767 8.40207C14.7934 8.38457 14.6184 8.30207 14.5017 8.1604C14.3851 8.01873 14.3276 7.83457 14.3434 7.64373V7.6179C14.3434 7.0354 13.9859 6.50957 13.4517 6.30957C13.1017 6.1854 12.9184 5.80207 13.0351 5.45207C13.1601 5.10207 13.5351 4.9179 13.8767 5.0354C14.9526 5.44373 15.6601 6.50123 15.6351 7.66873V7.7679Z" fill="white"/>
</svg>
